<svg width="32" height="32" viewBox="0 0 32 32" xmlns="http://www.w3.org/2000/svg">
    <defs>
        <linearGradient id="bgGradient" x1="0%" y1="0%" x2="0%" y2="100%">
            <stop offset="0%" style="stop-color:#2c003e;stop-opacity:1" />
            <stop offset="16.67%" style="stop-color:#800080;stop-opacity:1" />
            <stop offset="33.33%" style="stop-color:#ff0080;stop-opacity:1" />
            <stop offset="50%" style="stop-color:#ff5e00;stop-opacity:1" />
            <stop offset="66.67%" style="stop-color:#ffcc00;stop-opacity:1" />
            <stop offset="83.33%" style="stop-color:#ffd6e8;stop-opacity:1" />
            <stop offset="100%" style="stop-color:#00cfff;stop-opacity:1" />
        </linearGradient>
    </defs>

    <!-- Background with rounded corners -->
    <rect width="32" height="32" rx="6" ry="6" fill="url(#bgGradient)"/>

    <!-- Train body -->
    <rect x="8" y="14" width="16" height="8" rx="2" ry="2" fill="#ffffff" opacity="0.9"/>

    <!-- Train front -->
    <rect x="6" y="16" width="4" height="4" rx="2" ry="2" fill="#ffffff" opacity="0.9"/>

    <!-- Train chimney -->
    <rect x="20" y="11" width="2" height="3" fill="#ffffff" opacity="0.9"/>

    <!-- Smoke -->
    <circle cx="21" cy="9" r="1" fill="#ffffff" opacity="0.7"/>
    <circle cx="23" cy="7" r="0.8" fill="#ffffff" opacity="0.6"/>
    <circle cx="25" cy="6" r="0.6" fill="#ffffff" opacity="0.5"/>

    <!-- Train wheels -->
    <circle cx="11" cy="23" r="2" fill="#ffffff" opacity="0.9"/>
    <circle cx="17" cy="23" r="2" fill="#ffffff" opacity="0.9"/>
    <circle cx="21" cy="23" r="2" fill="#ffffff" opacity="0.9"/>

    <!-- Wheel centers -->
    <circle cx="11" cy="23" r="0.8" fill="#333333"/>
    <circle cx="17" cy="23" r="0.8" fill="#333333"/>
    <circle cx="21" cy="23" r="0.8" fill="#333333"/>

    <!-- Train window -->
    <rect x="10" y="16" width="3" height="2" rx="0.5" fill="#87ceeb" opacity="0.8"/>

    <!-- Train details -->
    <rect x="14" y="17" width="6" height="1" fill="#333333" opacity="0.3"/>
    <rect x="14" y="19" width="6" height="1" fill="#333333" opacity="0.3"/>
</svg>